<svg xmlns="http://www.w3.org/2000/svg" xmlns:xlink="http://www.w3.org/1999/xlink" version="1.1" width="1000" height="1000" viewBox="0 0 1000 1000" xml:space="preserve">
<desc>Created with Fabric.js 3.5.0</desc>
<defs>
</defs>
<rect x="0" y="0" width="100%" height="100%" fill="#ffffff"/>
<g transform="matrix(-4.5029 -1.7502 1.4336 -3.6883 747.4519 971.6241)" id="68711">
<path style="stroke: none; stroke-width: 1; stroke-dasharray: none; stroke-linecap: butt; stroke-dashoffset: 0; stroke-linejoin: miter; stroke-miterlimit: 4; is-custom-font: none; font-file-url: none; fill: rgb(8,159,5); fill-rule: nonzero; opacity: 1;" vector-effect="non-scaling-stroke" transform=" translate(-1.4127, -1.9917)" d="M 54.1 -46.9 C 67.7 -40.6 74.6 -20.3 71.8 -2.8 C 69 14.7 56.5 29.4 43 41.2 C 29.4 52.9 14.7 61.7 3.1 58.7 C -8.6 55.6 -17.1 40.6 -29.3 28.9 C -41.5 17.1 -57.4 8.6 -64.8 -7.5 C -72.3 -23.5 -71.4 -47 -59.2 -53.3 C -47 -59.7 -23.5 -48.9 -1.6 -47.3 C 20.3 -45.7 40.6 -53.3 54.1 -46.9 Z" stroke-linecap="round"/>
</g>
<g transform="matrix(-0.575 6.1663 -6.1663 -0.575 354.764 448.8545)" id="922088">
<path style="stroke: none; stroke-width: 1; stroke-dasharray: none; stroke-linecap: butt; stroke-dashoffset: 0; stroke-linejoin: miter; stroke-miterlimit: 4; is-custom-font: none; font-file-url: none; fill: rgb(34,34,34); fill-rule: nonzero; opacity: 1;" vector-effect="non-scaling-stroke" transform=" translate(-8.9398, 14.7617)" d="M 34.9 -45.6 C 50.4 -36.7 71.9 -33.5 74.4 -24.5 C 76.9 -15.5 60.3 -0.6 47.3 8 C 34.3 16.6 24.9 19 17.6 23.7 C 10.3 28.5 5.2 35.6 -3.2 40 C -11.6 44.4 -23.1 46.1 -34.7 42.7 C -46.2 39.3 -57.8 30.9 -56.7 21.5 C -55.5 12 -41.6 1.5 -37.7 -12.7 C -33.7 -26.9 -39.6 -44.7 -35 -57.2 C -30.3 -69.7 -15.2 -76.8 -2.8 -73 C 9.6 -69.2 19.3 -54.5 34.9 -45.6 Z" stroke-linecap="round"/>
</g>
<g transform="matrix(5.9047 0.6895 -0.8967 7.6794 709.3693 68.8984)" id="35567">
<path style="stroke: none; stroke-width: 1; stroke-dasharray: none; stroke-linecap: butt; stroke-dashoffset: 0; stroke-linejoin: miter; stroke-miterlimit: 4; is-custom-font: none; font-file-url: none; fill: rgb(8,80,5); fill-rule: nonzero; opacity: 1;" vector-effect="non-scaling-stroke" transform=" translate(-10.6476, 10.3303)" d="M 44.5 -65.2 C 53.8 -54.6 54.6 -36.3 61.2 -19.1 C 67.8 -1.9 80.3 14.1 78.5 27.3 C 76.6 40.4 60.5 50.7 45 53.9 C 29.6 57.1 14.8 53.2 4.1 47.6 C -6.6 41.9 -13.1 34.5 -24.6 30 C -36.1 25.5 -52.5 23.9 -56.4 17.1 C -60.3 10.2 -51.8 -1.9 -44.3 -11.1 C -36.8 -20.3 -30.3 -26.6 -23.1 -37.8 C -15.9 -49.1 -7.9 -65.5 4.9 -72.2 C 17.7 -78.8 35.3 -75.9 44.5 -65.2 Z" stroke-linecap="round"/>
</g>
</svg>