<svg width="556" height="623" viewBox="0 0 556 623" fill="none" xmlns="http://www.w3.org/2000/svg">
<rect width="556" height="623" fill="white"/>
<path d="M435.932 210.653L333.024 336.639L275.371 236.781L435.932 210.653Z" fill="#089F05"/>
<path d="M141.653 291.286L267.639 394.194L167.781 451.847L141.653 291.286Z" fill="#089F05"/>
<path d="M472.561 479.298L442.198 319.483L555.752 339.506L472.561 479.298Z" fill="#089F05"/>
<path d="M441.097 0.487062L547.299 123.709L438.947 163.146L441.097 0.487062Z" fill="#089F05"/>
<path d="M239.073 474.073L387.401 540.868L305.868 622.401L239.073 474.073Z" fill="#089F05"/>
<path d="M0.459405 609.809L48.6791 454.447L139.542 525.436L0.459405 609.809Z" fill="#089F05"/>
<path d="M305.16 145.367L151.575 91.7543L225.692 3.42472L305.16 145.367Z" fill="#089F05"/>
</svg>
